PathFileType	4	(X/Y/Z)	Walk10.trc
DataRate	CameraRate	NumFrames	NumMarkers	Units	OrigDataRate	OrigDataStartFrame	OrigNumFrames
200.000000	200.000000	6	60	mm	200.000000	309	568
Frame#	Times		LFHD		RFHD		CLAV		STRN		LASI		RASI		RACR1		RUA1		RElbow		RFA1		RWRR		RWRU		RCAR		LACR1		LUA1		LElbow		LFA1		LWRR		LWRU		LCAR		RTH2		RTB1		RTB2		LTH1		LTH3		LTH2		LLFC		LMFC		LTB1		LTB2		LTB4		LMT1		RTB4		LTB3		RTH3		RTB3		LToe		RMFC		LTH4		RElbowM		RTH4		RToe		RTH1		RMT1		RMMAL		RLFC		LBHD		RCAL		RBack		LMT5		RLMAL		RPSI		LMMAL		T10		C7		LPSI		LLMAL		LElbowM		LCAL		RBHD
			X1	Y1	Z1	X2	Y2	Z2	X3	Y3	Z3	X4	Y4	Z4	X5	Y5	Z5	X6	Y6	Z6	X7	Y7	Z7	X8	Y8	Z8	X9	Y9	Z9	X10	Y10	Z10	X11	Y11	Z11	X12	Y12	Z12	X13	Y13	Z13	X14	Y14	Z14	X15	Y15	Z15	X16	Y16	Z16	X17	Y17	Z17	X18	Y18	Z18	X19	Y19	Z19	X20	Y20	Z20	X21	Y21	Z21	X22	Y22	Z22	X23	Y23	Z23	X24	Y24	Z24	X25	Y25	Z25	X26	Y26	Z26	X27	Y27	Z27	X28	Y28	Z28	X29	Y29	Z29	X30	Y30	Z30	X31	Y31	Z31	X32	Y32	Z32	X33	Y33	Z33	X34	Y34	Z34	X35	Y35	Z35	X36	Y36	Z36	X37	Y37	Z37	X38	Y38	Z38	X39	Y39	Z39	X40	Y40	Z40	X41	Y41	Z41	X42	Y42	Z42	X43	Y43	Z43	X44	Y44	Z44	X45	Y45	Z45	X46	Y46	Z46	X47	Y47	Z47	X48	Y48	Z48	X49	Y49	Z49	X50	Y50	Z50	X51	Y51	Z51	X52	Y52	Z52	X53	Y53	Z53	X54	Y54	Z54	X55	Y55	Z55	X56	Y56	Z56	X57	Y57	Z57	X58	Y58	Z58	X59	Y59	Z59	X60	Y60	Z60

309	1.545	-17.535	1659.5	-68.221	-18.805	1665.4	30.667	-21.517	1408	2.4835	44.396	1249.9	6.9364	-77.248	993.34	-174.09	-63.962	990.12	189.33	-145.83	1496.6	164.84	-190.53	1334.4	284.61	-197.44	1185.8	336.47	-182.13	1033	357.64	-167.12	910.42	294.41	-180.76	919	374.04	-150.21	832.26	347.28	-131.06	1468.3	-185.29	-131.62	1296.1	-279.68	-97.151	1139.9	-339.89	-24.101	1022	-349.79	65.136	927.88	-286.24	36.004	897.93	-348.02	115.18	858.59	-320.61	-3.6516	750.26	212.87	91.87	424.31	146.56	62.302	335.84	195.48	-159.81	758.53	-192.48	-164.74	589.73	-163.13	-105.36	676.27	-161.75	-190.66	505.53	-157.3	-175.57	499.3	-0.71766	-145.66	373.08	-89.422	-197.2	289.42	-125.1	-169	294.19	-69.714	-170.43	35.921	-42.571	89.849	337.86	140.75	-200.92	213.87	-52.789	-9.1052	645.07	216.58	88.501	252.23	134.43	-116.09	24.577	-83.036	24.394	534.72	54.327	-163.28	674.84	-177.81	-250.68	1117.8	239.22	-51.928	719.22	227.35	223.49	91.199	167.11	-97.142	793.44	233.53	192.84	75.064	125.4	66.74	114.07	74.856	12.216	536.61	209.07	-169.39	1585.1	-77.98	-24.878	62.973	97.147	-288.66	1376.1	103.92	-238.17	25.861	-119.9	21.25	98.52	153.18	-327.91	1031.7	41.564	-297.33	85.61	32.971	-283.43	1173.3	2.1021	-215.94	1487.6	-10.157	-321.63	1047	-42.754	-325.18	80.267	-53.125	-150.85	1061.5	-254.9	-379.47	57.979	4.7095	-156.92	1599.5	70.609
310	1.55	-11.362	1658.8	-67.754	-12.547	1664.6	31.142	-15.335	1407	2.7362	50.465	1248.9	6.9415	-72.024	992.72	-174.02	-57.301	989.04	189.37	-139.45	1495.7	165.28	-184.69	1333.6	284.97	-192.21	1185	336.77	-177.69	1032.1	357.95	-163.32	909.42	294.78	-176.96	918.09	374.39	-146.96	831.12	347.64	-125.03	1467.5	-184.91	-124.61	1295.5	-279.49	-88.832	1139.7	-339.88	-14.825	1022.4	-349.69	75.015	929.08	-286	46.363	898.93	-347.91	125.83	860.36	-320.32	2.417	749.15	212.85	101.76	425.38	146.71	74.833	336.22	195.86	-155.51	757.94	-192.29	-161.2	589.16	-162.97	-101.41	675.42	-161.67	-187.55	505.04	-157.04	-172.06	498.63	-0.56471	-143.23	372.22	-89.239	-195.44	288.93	-124.88	-167.12	293.49	-69.52	-170.31	35.88	-42.568	102.43	338.89	141.16	-199.63	213.39	-52.587	-3.0965	643.95	216.61	103.76	253.23	135.13	-115.98	24.498	-83.165	30.855	533.28	53.994	-159.34	674.34	-177.66	-245.73	1117.3	239.47	-45.786	718.16	227.66	243.6	96.157	168.11	-90.948	792.41	233.9	213.5	79.141	126.43	86.294	114.3	75.896	19.155	535.53	208.87	-163.22	1584.3	-77.475	-3.7514	60.612	98.201	-282.42	1375.3	104.38	-238.15	25.894	-119.73	41.238	97.588	154.23	-321.68	1031	42.547	-296.81	85.79	33.239	-277.3	1172.6	2.912	-209.75	1486.8	-9.6946	-315.81	1046.4	-41.675	-324.79	80.617	-52.85	-142.34	1060.7	-255.28	-379.16	58.518	5.0381	-150.64	1598.7	71.134
311	1.555	-5.1725	1658	-67.265	-6.2758	1663.8	31.639	-9.1272	1406.1	3.0064	56.572	1247.9	6.9598	-66.815	992.04	-173.98	-50.631	987.9	189.46	-133.03	1494.8	165.73	-178.83	1332.8	285.34	-186.96	1184.2	337.08	-173.22	1031.2	358.28	-159.51	908.41	295.12	-173.11	917.16	374.73	-143.65	829.98	347.99	-118.98	1466.7	-184.51	-117.61	1294.8	-279.26	-80.545	1139.4	-339.82	-5.6045	1022.8	-349.54	84.825	930.21	-285.73	56.644	899.88	-347.75	136.38	862.06	-319.97	8.4139	747.86	212.83	111.47	426.42	146.83	87.209	336.66	196.23	-151.19	757.33	-192.1	-157.62	588.57	-162.81	-97.427	674.54	-161.59	-184.39	504.54	-156.78	-168.48	497.94	-0.40595	-140.75	371.34	-89.057	-193.65	288.42	-124.66	-165.21	292.77	-69.327	-170.19	35.841	-42.564	114.78	339.98	141.52	-198.3	212.91	-52.382	2.7849	642.67	216.65	118.74	254.35	135.79	-115.88	24.425	-83.291	37.216	531.69	53.665	-155.37	673.82	-177.51	-240.74	1116.7	239.72	-39.739	716.95	227.95	263.32	101.35	168.9	-84.812	791.24	234.23	233.74	83.493	127.28	105.5	114.8	76.924	26.034	534.37	208.7	-157.03	1583.6	-76.947	17.107	58.588	99.334	-276.14	1374.5	104.87	-238.14	25.929	-119.54	60.997	96.947	155.29	-315.4	1030.3	43.59	-296.29	85.981	33.514	-271.14	1171.9	3.7593	-203.53	1486	-9.209	-309.97	1045.8	-40.545	-324.39	80.986	-52.568	-133.86	1059.9	-255.6	-378.84	59.088	5.3703	-144.34	1597.8	71.681
312	1.56	1.0345	1657.3	-66.75	0.0070594	1663	32.16	-2.8918	1405.1	3.2956	62.715	1246.9	6.9925	-61.621	991.32	-173.99	-43.951	986.7	189.6	-126.59	1493.8	166.2	-172.96	1332	285.74	-181.69	1183.4	337.42	-168.71	1030.3	358.61	-155.68	907.38	295.45	-169.21	916.21	375.08	-140.27	828.83	348.34	-112.91	1465.9	-184.09	-110.61	1294.1	-279	-72.291	1139.1	-339.71	3.5581	1023.2	-349.35	94.561	931.28	-285.41	66.844	900.78	-347.54	146.84	863.69	-319.59	14.348	746.41	212.81	121.01	427.44	146.92	99.419	337.15	196.58	-146.84	756.69	-191.88	-154	587.96	-162.65	-93.406	673.65	-161.49	-181.18	504.01	-156.52	-164.83	497.21	-0.23656	-138.24	370.44	-88.876	-191.84	287.92	-124.44	-163.27	292.05	-69.136	-170.08	35.803	-42.559	126.91	341.1	141.85	-196.96	212.42	-52.176	8.5539	641.22	216.73	133.45	255.59	136.41	-115.79	24.357	-83.412	43.483	529.97	53.339	-151.37	673.27	-177.34	-235.7	1116.1	239.98	-33.777	715.6	228.21	282.61	106.74	169.46	-78.728	789.95	234.52	253.51	88.087	127.94	124.32	115.55	77.935	32.864	533.14	208.54	-150.81	1582.8	-76.394	37.653	56.883	100.54	-269.84	1373.6	105.37	-238.12	25.965	-119.34	80.492	96.584	156.37	-309.09	1029.6	44.695	-295.76	86.186	33.794	-264.95	1171.1	4.6428	-197.28	1485.2	-8.698	-304.09	1045.2	-39.365	-323.99	81.376	-52.281	-125.4	1059.1	-255.84	-378.51	59.691	5.7043	-138.01	1597	72.252
313	1.565	7.2581	1656.4	-66.208	6.302	1662.1	32.709	3.3718	1404.1	3.6053	68.893	1245.9	7.0407	-56.441	990.55	-174.04	-37.256	985.46	189.77	-120.11	1492.8	166.7	-167.06	1331.1	286.15	-176.39	1182.5	337.76	-164.15	1029.3	358.95	-151.83	906.34	295.76	-165.25	915.25	375.42	-136.82	827.67	348.69	-106.81	1465	-183.65	-103.63	1293.4	-278.69	-64.073	1138.7	-339.55	12.66	1023.5	-349.12	104.22	932.29	-285.05	76.959	901.62	-347.28	157.19	865.25	-319.16	20.233	744.8	212.78	130.37	428.41	146.99	111.45	337.7	196.92	-142.47	756.03	-191.66	-150.35	587.34	-162.47	-89.348	672.74	-161.4	-177.93	503.47	-156.25	-161.12	496.46	-0.053719	-135.68	369.53	-88.699	-190.01	287.41	-124.21	-161.29	291.31	-68.95	-169.97	35.766	-42.555	138.81	342.26	142.15	-195.6	211.94	-51.971	14.229	639.63	216.82	147.85	256.92	136.99	-115.7	24.292	-83.527	49.663	528.15	53.018	-147.33	672.7	-177.15	-230.61	1115.5	240.25	-27.885	714.12	228.44	301.44	112.29	169.81	-72.685	788.55	234.76	272.79	92.884	128.42	142.73	116.51	78.923	39.656	531.86	208.4	-144.58	1581.9	-75.815	57.841	55.474	101.79	-263.51	1372.7	105.9	-238.11	26.002	-119.12	99.682	96.48	157.46	-302.74	1028.8	45.86	-295.23	86.406	34.078	-258.73	1170.3	5.561	-191	1484.3	-8.1594	-298.17	1044.5	-38.137	-323.57	81.79	-51.993	-116.96	1058.2	-256.02	-378.18	60.328	6.0375	-131.67	1596.1	72.848
314	1.57	13.498	1655.6	-65.637	12.609	1661.2	33.287	9.6645	1403	3.9367	75.105	1244.8	7.1058	-51.275	989.73	-174.12	-30.543	984.16	189.98	-113.61	1491.8	167.22	-161.14	1330.2	286.58	-171.08	1181.6	338.13	-159.55	1028.3	359.3	-147.95	905.29	296.06	-161.24	914.27	375.77	-133.3	826.51	349.04	-100.7	1464	-183.18	-96.657	1292.6	-278.35	-55.894	1138.4	-339.34	21.7	1023.7	-348.84	113.8	933.24	-284.64	86.984	902.41	-346.97	167.44	866.75	-318.68	26.081	743.06	212.74	139.56	429.34	147.02	123.29	338.28	197.25	-138.06	755.35	-191.42	-146.65	586.69	-162.29	-85.251	671.82	-161.29	-174.63	502.92	-155.98	-157.36	495.7	0.14207	-133.1	368.6	-88.528	-188.15	286.9	-124	-159.29	290.57	-68.769	-169.86	35.731	-42.55	150.46	343.44	142.42	-194.21	211.46	-51.769	19.835	637.9	216.93	161.94	258.34	137.53	-115.62	24.232	-83.636	55.767	526.24	52.704	-143.26	672.11	-176.96	-225.47	1114.9	240.53	-22.047	712.52	228.65	319.77	117.96	169.96	-66.671	787.04	234.94	291.53	97.835	128.73	160.7	117.66	79.878	46.425	530.54	208.26	-138.32	1581.1	-75.208	77.623	54.336	103.09	-257.14	1371.8	106.45	-238.1	26.039	-118.9	118.52	96.612	158.52	-296.35	1028.1	47.081	-294.69	86.643	34.362	-252.48	1169.5	6.5123	-184.68	1483.4	-7.5914	-292.21	1043.8	-36.865	-323.15	82.229	-51.707	-108.57	1057.4	-256.13	-377.84	61.001	6.3666	-125.32	1595.1	73.47
